<?xml version="1.0" standalone="no"?>
<!DOCTYPE svg PUBLIC "-//W3C//DTD SVG 20010904//EN"
 "http://www.w3.org/TR/2001/REC-SVG-20010904/DTD/svg10.dtd">
<svg version="1.0" xmlns="http://www.w3.org/2000/svg"
 width="512.000000pt" height="512.000000pt" viewBox="0 0 512.000000 512.000000"
 preserveAspectRatio="xMidYMid meet">
<metadata>
Created by potrace 1.14, written by Peter Selinger 2001-2017
</metadata>
<g transform="translate(0.000000,512.000000) scale(0.100000,-0.100000)"
fill="#000000" stroke="none">
<path d="M1395 4758 c-155 -52 -270 -180 -329 -366 -14 -44 -27 -99 -30 -123
-3 -24 -8 -62 -11 -84 -13 -90 -9 -256 10 -425 6 -52 27 -168 46 -252 10 -48
19 -94 19 -101 0 -9 -39 -26 -102 -47 -490 -156 -811 -382 -909 -639 -32 -85
-37 -211 -11 -297 47 -153 157 -285 342 -409 150 -101 401 -214 612 -276 75
-22 76 -23 66 -48 -5 -14 -9 -27 -8 -29 1 -1 -4 -26 -10 -55 -6 -30 -13 -67
-16 -83 -2 -16 -9 -51 -14 -79 -20 -109 -32 -245 -32 -355 2 -379 109 -613
331 -719 l76 -36 145 1 c137 0 150 2 240 33 206 72 454 233 675 438 37 35 70
63 75 63 4 0 30 -21 56 -46 222 -211 488 -383 709 -460 72 -25 94 -28 220 -28
126 -1 146 1 200 23 264 107 387 411 351 871 -6 89 -16 172 -21 180 -2 3 -6
28 -9 55 -4 28 -17 96 -30 151 l-23 102 61 17 c34 9 122 39 196 67 413 154
671 353 761 587 33 84 36 225 6 312 -68 201 -246 367 -547 512 -158 76 -171
82 -333 136 l-143 47 7 30 c21 89 48 224 53 262 22 162 27 221 28 332 2 409
-145 679 -407 747 -90 23 -266 13 -370 -22 -213 -70 -473 -239 -704 -454 -30
-28 -58 -51 -62 -51 -5 0 -18 11 -31 23 -27 28 -181 161 -224 194 -191 148
-363 244 -525 294 -105 33 -298 36 -384 7z m339 -223 c182 -60 404 -206 614
-402 l62 -58 -47 -50 c-27 -28 -66 -73 -88 -100 -22 -27 -47 -56 -55 -65 -22
-24 -227 -292 -234 -307 -1 0 -28 -4 -61 -7 -33 -4 -109 -14 -170 -22 -60 -9
-123 -17 -138 -19 -16 -2 -40 -6 -55 -9 -15 -3 -43 -8 -62 -11 -19 -3 -66 -13
-103 -22 -38 -8 -73 -11 -77 -7 -8 9 -43 162 -56 244 -76 488 3 801 215 856
66 17 168 9 255 -21z m1922 17 c113 -33 195 -171 220 -370 19 -145 0 -416 -40
-587 -2 -5 -9 -38 -16 -73 -7 -34 -16 -65 -20 -67 -5 -3 -40 2 -79 10 -39 8
-85 17 -103 20 -18 3 -44 7 -58 10 -14 3 -38 7 -55 9 -41 6 -117 18 -135 21
-14 2 -123 16 -160 20 -8 1 -28 2 -45 4 -24 1 -38 13 -75 64 -41 58 -218 286
-230 297 -3 3 -38 42 -77 86 l-73 82 75 67 c183 164 343 277 488 345 153 72
278 92 383 62z m-999 -740 c45 -53 106 -129 136 -167 l54 -70 -287 0 -288 0
54 70 c94 121 229 272 239 268 6 -2 47 -48 92 -101z m312 -465 c31 -3 49 -11
62 -28 21 -28 186 -289 204 -321 6 -13 21 -39 32 -58 49 -87 87 -157 144 -267
l61 -117 -67 -131 c-94 -181 -182 -335 -292 -507 -52 -82 -95 -148 -96 -149
-51 -17 -877 -17 -913 0 -1 1 -33 49 -72 109 -123 190 -257 423 -348 608 l-35
71 72 139 c91 177 201 366 302 522 43 67 80 122 81 123 0 0 37 3 81 6 44 3 82
6 83 8 5 5 648 -3 701 -8z m591 -73 c72 -10 180 -36 180 -43 0 -13 -52 -160
-102 -289 l-51 -132 -58 107 c-33 59 -59 108 -59 109 0 1 -37 62 -81 135 -45
73 -83 138 -86 144 -2 8 33 6 109 -7 62 -10 129 -21 148 -24z m-1752 14 c-41
-62 -170 -283 -212 -363 -60 -112 -63 -115 -76 -79 -6 16 -14 38 -19 49 -34
82 -52 129 -93 248 -17 48 -29 90 -26 92 4 5 198 44 252 51 23 3 57 9 76 13
19 4 53 8 74 10 38 2 39 2 24 -21z m-604 -220 c41 -121 144 -382 182 -461 l23
-49 -61 -141 c-59 -139 -120 -298 -160 -424 -11 -35 -25 -63 -32 -63 -19 0
-233 74 -329 114 -283 117 -488 281 -536 426 -78 240 188 484 734 671 61 21
117 38 126 38 11 1 26 -31 53 -111z m2866 81 c291 -95 509 -210 642 -341 172
-170 175 -328 9 -496 -102 -103 -242 -191 -434 -271 -90 -37 -306 -111 -325
-111 -5 0 -26 51 -47 113 -40 118 -110 299 -169 432 -34 77 -34 80 -19 115 51
115 157 383 189 478 20 62 42 112 48 112 6 0 54 -14 106 -31z m-2486 -941 c54
-101 159 -282 209 -361 32 -50 33 -54 13 -50 -359 57 -426 70 -426 82 0 20
151 426 156 418 0 -1 22 -41 48 -89z m2054 -38 c56 -145 105 -290 100 -295 -6
-6 -143 -35 -235 -49 -16 -3 -62 -10 -104 -16 -42 -7 -81 -11 -87 -9 -6 2 9
36 34 74 24 39 49 81 57 95 132 238 181 320 187 313 4 -4 26 -55 48 -113z
m-2163 -539 c60 -12 124 -23 140 -26 17 -2 78 -10 135 -18 58 -9 134 -18 170
-22 35 -3 65 -7 65 -8 8 -13 173 -230 219 -287 61 -76 76 -94 160 -185 l45
-50 -47 -45 c-307 -289 -605 -452 -813 -445 -168 5 -267 126 -303 367 -15 101
-13 274 4 398 12 95 58 328 66 342 3 4 15 6 27 4 12 -2 71 -14 132 -25z m2333
22 c-1 -5 8 -51 20 -103 22 -98 26 -119 46 -278 14 -112 13 -303 -4 -392 -28
-155 -96 -267 -188 -311 -99 -49 -263 -24 -442 66 -63 32 -258 157 -270 174
-3 4 -23 20 -45 36 -22 16 -47 36 -56 45 -9 8 -48 44 -87 78 l-71 64 72 81
c83 93 204 244 292 364 l60 82 65 6 c36 4 76 9 90 11 14 2 49 7 79 10 30 3 64
8 75 10 11 2 38 6 61 9 50 8 69 11 180 34 104 22 126 24 123 14z m-971 -132
c-7 -9 -17 -22 -24 -31 -54 -70 -166 -204 -204 -245 l-48 -49 -22 19 c-23 21
-218 252 -249 295 l-18 25 289 0 c254 1 286 -1 276 -14z"/>
<path d="M2489 2996 c-3 -3 -20 -8 -39 -11 -102 -18 -244 -132 -287 -230 -41
-94 -42 -99 -46 -185 -11 -210 137 -400 352 -450 64 -15 178 -8 241 14 217 79
337 312 278 541 -39 151 -183 286 -338 315 -54 10 -153 14 -161 6z"/>
</g>
</svg>
